<svg width="256" height="256" viewBox="0 0 256 256" fill="none" xmlns="http://www.w3.org/2000/svg">
<g clip-path="url(#clip0_12_4)">
<path d="M196 0H60C26.8629 0 0 26.8629 0 60V196C0 229.137 26.8629 256 60 256H196C229.137 256 256 229.137 256 196V60C256 26.8629 229.137 0 196 0Z" fill="white"/>
<path d="M78.3692 73.8316C78.3692 73.8316 134.744 87.7143 145.924 89.3958C162.633 91.9151 180.805 104.282 170.94 128.531C161.695 151.246 119.829 142.036 101.214 120.607C82.5995 99.178 78.3692 73.8316 78.3692 73.8316Z" fill="#98CCFD"/>
<path d="M18.2069 172.94C18.2069 172.94 71.2479 157.317 92.8714 126.336C114.495 95.3548 135.953 45.9954 191.543 60.9342C201.425 63.5892 227.633 74.6222 222.683 127.504C217.822 179.4 175.235 218.022 123.799 218.022C72.363 218.022 32.8153 190.475 18.2069 172.94Z" fill="#98CCFD"/>
<path d="M123.793 220.972C68.8938 220.972 29.2399 190.787 15.9354 174.834C15.3041 174.073 15.0917 173.04 15.3808 172.09C15.6699 171.14 16.4192 170.397 17.3691 170.12C17.8883 169.966 69.6785 154.414 90.4524 124.66C93.4024 120.436 96.3465 115.869 99.3732 111.173C118.483 81.537 142.254 44.6502 192.304 58.0904C203.986 61.2292 230.625 74.3095 225.615 127.787C220.636 180.905 176.864 220.972 123.793 220.972ZM23.4343 174.362C38.4321 190.091 74.6935 215.072 123.793 215.072C173.802 215.072 215.049 177.306 219.739 127.227C224.164 79.9853 203.49 67.2 190.776 63.778C144.921 51.4706 123.351 84.8705 104.335 114.359C101.261 119.12 98.2817 123.746 95.2963 128.023C76.7585 154.567 36.8096 169.836 23.4343 174.362Z" fill="#4788C7"/>
<path d="M117.079 91.0537C117.079 91.0537 162.91 125.474 222.996 126.613C222.996 126.613 225.279 98.8476 216.913 80.9765C216.913 80.9765 181.354 81.3541 136.856 71.0881C136.856 71.0881 129.605 76.0028 127.729 77.9321C124.749 80.9942 117.079 91.0537 117.079 91.0537Z" fill="#DFF0FE"/>
<path d="M213.2 103.127C214.609 95.5667 208.62 88.1094 199.824 86.4702C191.027 84.831 182.754 89.6307 181.346 97.1905C179.937 104.75 185.926 112.208 194.722 113.847C203.518 115.486 211.791 110.686 213.2 103.127Z" fill="white"/>
<path d="M47.2467 93.8444C47.2467 93.8444 78.6642 102.275 107.574 104.942C123.487 106.405 142.184 117.875 135.34 139.168C127.835 162.514 91.9805 160.084 71.4485 138.029C52.0965 117.256 47.2467 93.8444 47.2467 93.8444Z" fill="#98CCFD"/>
<path d="M226.176 116.164L240.283 110.571L225.716 105.231C222.43 70.4745 202.122 60.7159 192.304 58.0786C164.562 50.6269 144.378 58.2556 129.103 71.92C129.363 64.6276 129.516 52.8394 129.31 48.0663C128.785 35.93 119.976 33.3812 107.804 32.8443C103.963 32.6732 99.8865 26.6611 98.5118 23.7701L88.7178 28.3721C89.4258 29.8825 95.9571 43.1516 107.326 43.6531C117.917 44.1192 118.755 44.6738 120.596 49.9307C121.121 51.4824 120.708 56.9812 120.696 63.4299C118.896 60.8634 116.702 58.2497 113.982 55.7835C103.043 45.901 89.0364 47.848 75.5077 49.7419L70.8644 50.385C60.7164 51.683 57.4832 43.4997 57.141 42.5557L52.0375 44.3375L46.9163 46.0721C48.9695 52.1432 56.8873 63.0759 72.2568 61.1112L77.0063 60.4622C89.5969 58.704 99.5443 57.3175 106.731 63.8134C113.35 69.796 116.058 77.0353 116.967 80.0679C98.8009 75.8081 79.4076 71.0409 79.0772 70.9583C78.1214 70.7223 77.1007 70.9819 76.3691 71.6604C75.6375 72.333 75.3012 73.3301 75.4664 74.3095C75.5785 74.988 77.4193 85.4959 83.5966 98.6588C64.1974 95.284 48.2379 91.0478 48.0137 90.9888C47.0343 90.7115 45.9723 90.9888 45.223 91.6909C44.4796 92.393 44.1492 93.4314 44.3616 94.4344C44.5681 95.4197 49.6126 118.896 69.2891 140.03C70.2095 141.021 71.2125 141.924 72.2037 142.85C48.5683 160.697 17.7821 169.984 17.3809 170.108C16.431 170.385 15.6817 171.128 15.3926 172.078C15.1035 173.028 15.3159 174.061 15.9472 174.822C29.2458 190.781 67.5781 220.641 122.478 220.641C175.548 220.641 220.648 180.899 225.627 127.769C225.68 127.215 225.68 126.737 225.722 126.194L237.321 123.043L226.188 116.866C226.188 116.624 226.176 116.406 226.176 116.164ZM82.3045 77.8318C89.4671 79.5841 103.662 83.0297 116.985 86.1449C112.925 91.2189 109.079 96.464 105.539 101.762C100.63 101.261 95.668 100.594 90.8182 99.8506C86.1631 90.8177 83.5553 82.6344 82.3045 77.8318ZM51.4416 97.9508C58.4154 99.6618 71.9441 102.771 86.9301 105.196C89.4081 105.597 91.9215 105.981 94.4585 106.335C96.9306 106.683 99.4145 107.001 101.893 107.285C103.698 107.491 105.503 107.709 107.297 107.875C107.68 107.91 108.052 107.987 108.436 108.034C117.923 109.196 126.608 113.863 130.767 120.152C133.865 124.843 134.502 130.383 132.909 136.572C132.761 137.139 132.714 137.681 132.525 138.26C132.065 139.687 131.475 140.926 130.826 142.083C127.345 148.295 121.498 150.903 116.808 151.948C105.84 154.39 92.4584 150.709 81.5788 142.903C79.9504 141.735 78.381 140.478 76.8824 139.127C75.7614 138.118 74.6286 137.115 73.602 136.006C60.1559 121.574 53.8842 105.662 51.4416 97.9508ZM219.739 127.227C215.049 177.306 172.887 214.629 122.879 214.629C73.779 214.629 38.4262 190.085 23.4284 174.356C33.2519 171.034 57.3829 161.895 76.8588 146.779C86.7472 154.237 98.7596 158.591 109.799 158.591C112.642 158.591 115.427 158.308 118.082 157.712C126.755 155.777 133.251 150.797 136.744 143.534C137.275 142.425 137.747 141.275 138.136 140.065C138.372 139.333 138.543 138.614 138.726 137.894C140.679 130.153 139.67 122.931 135.682 116.902C130.207 108.618 120.519 104.252 112.029 102.618C115.539 97.4316 119.227 92.3399 123.186 87.5786C124.625 85.844 126.112 84.1684 127.634 82.54C142.673 66.433 161.895 56.0254 190.77 63.778C198.947 65.9728 210.382 72.1088 216.352 88.7232L190.44 77.2241L186.05 87.1125L198.458 92.6172C195.679 93.6202 193.555 95.8091 193.024 98.6529C192.18 103.172 195.673 107.621 200.83 108.577C205.98 109.538 210.842 106.647 211.686 102.128C211.927 100.83 211.78 99.5497 211.367 98.3402L214.765 99.8447L217.751 93.1246C220.093 101.815 221.078 112.919 219.739 127.227Z" fill="#4788C7"/>
<path d="M207.556 102.718C209.185 102.718 210.506 101.397 210.506 99.768C210.506 98.1388 209.185 96.818 207.556 96.818C205.926 96.818 204.606 98.1388 204.606 99.768C204.606 101.397 205.926 102.718 207.556 102.718Z" fill="white"/>
</g>
<defs>
<clipPath id="clip0_12_4">
<rect width="256" height="256" fill="white"/>
</clipPath>
</defs>
</svg>
