<svg width="256" height="256" viewBox="0 0 256 256" fill="none" xmlns="http://www.w3.org/2000/svg">
<g clip-path="url(#clip0_12_68)">
<path d="M217.6 0H38.4C17.1923 0 0 17.1923 0 38.4V217.6C0 238.808 17.1923 256 38.4 256H217.6C238.808 256 256 238.808 256 217.6V38.4C256 17.1923 238.808 0 217.6 0Z" fill="#242938"/>
<path d="M219.392 106.752C235.264 111.36 235.264 111.36 235.264 111.36L220.416 115.712L230.656 120.064L219.904 122.112L219.392 106.752Z" fill="#1A1A1A"/>
<path d="M217.856 124.672L217.6 116.992L214.016 115.456L217.6 114.432L217.344 103.936L243.456 111.616L227.328 116.48L238.592 121.088L217.856 124.672ZM221.952 119.04V119.552L222.72 119.296L221.952 119.04ZM221.696 109.824V113.152L227.328 111.616L221.696 109.824Z" fill="black"/>
<path d="M69.888 77.312C67.84 104.448 100.352 147.968 132.608 151.552C145.152 152.832 163.584 141.056 162.56 128.512C160 93.184 105.728 91.392 69.888 77.312Z" fill="url(#paint0_linear_12_68)"/>
<path d="M12.8 177.92C48.128 217.088 111.616 235.008 157.696 215.808C196.096 199.936 221.184 148.736 221.184 108.288C221.184 80.384 193.28 48.896 152.064 61.952C133.632 67.84 119.552 86.272 107.52 103.168C80.896 138.496 57.344 162.56 12.8 177.92Z" fill="url(#paint1_linear_12_68)"/>
<path d="M39.424 98.56C41.728 125.696 80.896 163.584 113.152 161.792C125.696 161.024 142.08 146.432 139.008 134.144C130.816 99.84 76.8 106.752 39.424 98.56Z" fill="url(#paint2_linear_12_68)"/>
<path d="M128.768 77.056C140.032 78.08 159.744 81.664 175.36 82.688C188.16 83.456 203.264 83.2 213.76 82.944C221.44 96 222.464 105.984 220.16 122.368C197.632 126.208 180.736 123.136 162.304 117.248C145.664 111.872 129.024 103.936 116.992 90.368C122.368 82.688 124.16 81.152 128.768 77.056Z" fill="#D40000"/>
<path d="M211.937 109.284C209.662 115.253 202.23 117.201 194.694 114.024C187.158 110.848 183.216 103.643 185.34 98.0721C187.464 92.5009 195.047 90.1549 202.582 93.3316C209.827 95.9235 214.212 103.315 211.937 109.284Z" fill="white"/>
<path d="M211.202 108.512C209.533 112.89 204.179 114.789 198.859 112.547C193.54 110.305 190.915 105.041 192.584 100.664C194.253 96.2867 199.607 94.387 204.927 96.6293C209.803 98.6848 212.871 104.135 211.202 108.512Z" fill="black"/>
<path d="M208.881 102.453C208.274 104.045 206.489 104.678 204.716 103.931C202.943 103.183 202.068 101.429 202.675 99.8371C203.282 98.2453 205.067 97.6121 206.84 98.3595C208.613 99.107 209.336 101.259 208.881 102.453Z" fill="white"/>
<path d="M210.944 100.864C208.128 99.072 205.824 96.768 203.008 94.976C200.192 93.184 197.632 91.392 194.56 90.112C193.28 89.6 192 89.088 190.464 88.832C189.44 89.088 190.72 88.32 190.72 88.064C191.744 87.04 192.512 86.016 193.536 84.992C194.816 85.248 195.84 85.76 196.864 86.016C199.936 87.296 202.752 89.088 205.568 91.136C208.384 92.928 210.944 95.232 213.76 97.024C214.528 97.28 214.528 97.792 214.016 98.048C213.248 98.816 211.968 99.84 210.944 100.864Z" fill="black"/>
<path d="M131.072 92.16C125.696 91.904 119.296 92.672 115.2 87.552C111.616 83.456 108.544 78.592 106.752 73.216C106.496 69.376 106.496 64.512 102.912 62.72C98.816 60.16 93.952 60.416 89.344 59.648C80.896 59.136 72.704 62.72 64.768 65.792C60.928 67.328 56.32 67.072 53.504 63.232C51.456 60.672 49.92 57.6 48.64 54.528C46.592 52.48 46.592 49.408 49.152 48.64C50.688 47.616 52.48 46.336 54.016 45.312C56.576 50.944 58.624 57.856 64 60.416C69.632 61.696 74.752 58.112 79.872 56.576C87.296 53.76 95.232 53.248 102.656 54.784C107.008 55.296 112.384 57.088 113.664 62.72C114.176 67.584 114.944 72.448 117.76 76.032C120.576 80.896 124.672 85.76 130.048 86.016C131.84 86.784 137.728 85.248 136.96 87.04C134.912 88.576 132.864 90.368 131.072 92.16Z" fill="#D40000"/>
<path d="M127.488 89.6C123.648 87.04 118.784 84.736 116.992 80.128C115.968 77.056 114.688 73.728 114.176 70.4C113.664 66.048 114.176 61.44 113.92 56.832C114.688 54.016 112.896 51.456 109.824 50.688C105.984 49.664 102.144 49.664 98.304 49.152C94.72 48.896 90.624 49.664 87.808 47.104C85.76 44.544 84.736 41.216 83.712 38.144C83.456 36.608 85.504 36.352 86.528 35.584C88.32 34.56 89.856 33.536 91.648 32.256C91.904 35.328 93.44 38.144 94.464 40.704C96 43.52 99.584 43.776 102.656 43.776C107.264 44.032 111.872 44.032 116.48 45.056C119.296 45.824 122.624 47.616 122.368 50.944C122.624 57.856 121.344 64.768 123.904 71.424C124.928 74.496 125.952 77.568 128.512 79.616C130.56 81.408 132.864 82.688 135.168 83.968C133.376 85.504 131.072 86.784 129.024 88.064C128.256 88.832 127.744 89.088 127.488 89.6Z" fill="#D40000"/>
</g>
<defs>
<linearGradient id="paint0_linear_12_68" x1="69.8853" y1="114.378" x2="162.709" y2="114.378" gradientUnits="userSpaceOnUse">
<stop/>
<stop offset="1" stop-color="#6D5656"/>
</linearGradient>
<linearGradient id="paint1_linear_12_68" x1="76.5754" y1="195.114" x2="290.213" y2="40.8606" gradientUnits="userSpaceOnUse">
<stop/>
<stop offset="1" stop-color="#6D5656"/>
</linearGradient>
<linearGradient id="paint2_linear_12_68" x1="60.8264" y1="136.618" x2="136.762" y2="106.967" gradientUnits="userSpaceOnUse">
<stop/>
<stop offset="1" stop-color="#6D5656"/>
</linearGradient>
<clipPath id="clip0_12_68">
<rect width="256" height="256" fill="white"/>
</clipPath>
</defs>
</svg>
