<svg width="256" height="256" viewBox="0 0 256 256" xmlns="http://www.w3.org/2000/svg">
  <!-- 带灰微蓝深色圆角方块 -->
  <rect width="256" height="256" rx="32" ry="32" fill="#2E323C"></rect>
  <!-- 主体图标，下移至 y="28" -->
  <svg x="20" y="28" width="216" height="216" viewBox="4.7 2.795 370.6 295.305" preserveAspectRatio="xMidYMid meet" xmlns="http://www.w3.org/2000/svg">
    <g>
      <path d="M128.3,71.4c-6.5-3.4-13-6.6-20.3-7.6c-3.4-0.5-6.6-1.7-9.9-1.8c-2.7-0.1-3.1-1.5-1.7-3.7 c2.6-4.2,5.4-8.1,8.6-11.9c17.3-20.5,38.9-34.2,65-40.3c9-2.1,18.1-3.4,27.4-3.3c24.2,0.4,46.8,6.8,66.9,20.5 c5.1,3.5,10.4,7.2,14.8,11.8c3.3,3.5,3.7,3.4,6.4-0.8c3.1-4.7,5.2-9.8,7.9-14.8c0.4-0.8,0.6-2.1,1.7-1.9s1.3,1.2,1.6,2.1 c4.3,12.6,8.1,25.2,11.4,38.1c2.6,10,4.9,20.1,6.4,30.3c0.2,1.8,1.2,3,3.2,3.7c20,7.7,34.8,21.1,43.2,40.9 c7.3,17,7.8,34.7,2.4,52.3c-4.7,15.4-14,27.9-26.9,37.4c-12.6,9.3-27,14.3-42.8,14.3c-65.3,0.1-130.7,0.1-196,0 c-26.6-0.1-48.7-10.7-65.2-31.3c-17.3-21.7-22.6-46.8-16.1-74c3.7-15.6,11.5-29,23-40.1c9.7-9.4,21.1-16.7,34.2-20.2 c17.1-4.4,34.6-5.2,51.7,0.7c0.9,0.3,2.1,0.4,3.1,0.5C128.1,71.9,128.2,71.7,128.3,71.4z M157.6,201.6c1.1,0.8,2.2,0.5,3.2,0.4 c7.1-0.9,14.3-0.7,21.3-0.3c13.2,0.8,26.4,0.5,39.6,0.5c15.7,0,31.1-2.3,45.7-7.9c10.2-3.9,18.8-10,25.4-18.5 c12.5-15.9,17.1-34.7,17.7-54.5c0.5-15.5-1.9-30.7-4.7-45.8c-2.5-13.6-6.6-26.9-10.7-40.1c-0.2-0.7-0.4-1.3-1.2-1.4 c-1-0.1-1.4,0.6-1.8,1.3c-2.8,4-5.3,8.2-8.6,11.9c-5.6,6.4-12.2,11.7-19.1,16.8c-13,9.6-27.5,15.9-43.1,19.1 c-11.5,2.4-23.4,2.8-35.2,3.2c-16.1,0.6-31.4,4.2-44.9,13.5c-10.6,7.3-18,17-22.8,28.9c-3.1,7.8-3.5,15.8-3.4,24.1 c0.2,12.9,5.1,23.5,15.3,31.5c2.5,1.9,4.9,2.6,8.1,2.1c16.8-3.2,33.4-7.3,49.9-12.1c11.8-3.5,23.2-8,33.6-14.4 c14.3-8.7,27.6-18.7,38.6-31.6c7.3-8.7,14.4-17.5,18.8-28.1c0.5-1.3,1.3-2.5,1.9-3.7c0.7-1.2,0.9-2.7,2.8-3.9 c-1.3,7.8-3.4,14.8-6.4,21.3c-5.3,11.6-11.9,22.4-20.2,32.2c-7.6,9-16,16.8-25.1,24C217,182.3,199,189,180.2,194.3 C172.6,196.2,164.9,198.1,157.6,201.6z M134.7,203.5c-0.1-4.7-4.7-9.5-9-9.4c-4.9,0.1-9.8,5.3-9.7,10s4.8,9,9.8,9 C130.9,213.3,134.8,209,134.7,203.5z" fill="#6cb23f"></path>
    </g>
  </svg>
</svg>
