<svg width="256" height="256" viewBox="0 0 256 256" fill="none" xmlns="http://www.w3.org/2000/svg">
<g clip-path="url(#clip0_14_202)">
<path d="M217.6 0H38.4C17.1923 0 0 17.1923 0 38.4V217.6C0 238.808 17.1923 256 38.4 256H217.6C238.808 256 256 238.808 256 217.6V38.4C256 17.1923 238.808 0 217.6 0Z" fill="#242938"/>
<path d="M196.16 94.256C217.636 143.352 217.636 174.136 196.16 186.6C163.94 205.296 79.984 210.996 55.816 182.256C39.704 163.096 39.704 133.76 55.816 94.256C72.2 67.272 95.484 53.78 125.668 53.78C155.856 53.78 179.352 67.272 196.16 94.256Z" fill="url(#paint0_linear_14_202)"/>
<path d="M196.16 94.256C217.636 143.352 217.636 174.136 196.16 186.6C163.94 205.296 79.984 210.996 55.816 182.256C39.704 163.096 39.704 133.76 55.816 94.256C72.2 67.272 95.484 53.78 125.668 53.78C155.856 53.78 179.352 67.272 196.16 94.256Z" stroke="#F2F2F2" stroke-opacity="0.51" stroke-width="80"/>
</g>
<defs>
<linearGradient id="paint0_linear_14_202" x1="103.912" y1="104.46" x2="185.54" y2="182.596" gradientUnits="userSpaceOnUse">
<stop stop-color="#5CDD8B"/>
<stop offset="1" stop-color="#86E6A9"/>
</linearGradient>
<clipPath id="clip0_14_202">
<rect width="256" height="256" fill="white"/>
</clipPath>
</defs>
</svg>
